<svg xmlns="http://www.w3.org/2000/svg" viewBox="0 0 480 320"><rect width="480" height="320" rx="12" fill="#FAF7F1"/><path d="M45 270h390M56 286V36" stroke="#CBC6BC"/><g fill="#285F8A" opacity=".8"><circle cx="224.4" cy="289.6" r="3"/><circle cx="262.0" cy="221.5" r="3"/><circle cx="238.7" cy="186.5" r="3"/><circle cx="240.6" cy="167.8" r="3"/><circle cx="168.8" cy="126.6" r="3"/><circle cx="146.8" cy="184.3" r="3"/><circle cx="239.8" cy="252.5" r="3"/><circle cx="237.1" cy="186.7" r="3"/><circle cx="245.6" cy="172.7" r="3"/><circle cx="111.2" cy="224.7" r="3"/><circle cx="186.5" cy="184.2" r="3"/><circle cx="196.6" cy="316.2" r="3"/><circle cx="271.7" cy="193.8" r="3"/><circle cx="150.2" cy="217.2" r="3"/><circle cx="162.9" cy="230.5" r="3"/><circle cx="129.7" cy="169.1" r="3"/><circle cx="260.9" cy="131.2" r="3"/><circle cx="216.9" cy="181.6" r="3"/><circle cx="261.8" cy="149.5" r="3"/><circle cx="248.4" cy="276.8" r="3"/><circle cx="131.1" cy="131.1" r="3"/><circle cx="236.3" cy="141.2" r="3"/><circle cx="138.7" cy="245.2" r="3"/><circle cx="263.5" cy="229.2" r="3"/><circle cx="270.1" cy="210.3" r="3"/><circle cx="167.3" cy="55.8" r="3"/><circle cx="239.1" cy="120.7" r="3"/><circle cx="214.6" cy="193.9" r="3"/><circle cx="143.9" cy="157.7" r="3"/><circle cx="306.3" cy="213.0" r="3"/><circle cx="124.3" cy="164.5" r="3"/><circle cx="212.3" cy="203.3" r="3"/><circle cx="252.5" cy="171.3" r="3"/><circle cx="199.2" cy="218.1" r="3"/><circle cx="134.4" cy="231.6" r="3"/><circle cx="230.1" cy="149.2" r="3"/><circle cx="180.1" cy="185.6" r="3"/><circle cx="131.8" cy="56.6" r="3"/><circle cx="231.4" cy="246.1" r="3"/><circle cx="202.4" cy="175.4" r="3"/><circle cx="209.3" cy="124.3" r="3"/><circle cx="231.7" cy="213.0" r="3"/><circle cx="211.1" cy="217.0" r="3"/><circle cx="154.0" cy="184.6" r="3"/><circle cx="168.5" cy="147.1" r="3"/><circle cx="223.1" cy="179.4" r="3"/><circle cx="254.5" cy="204.1" r="3"/><circle cx="144.7" cy="235.1" r="3"/><circle cx="123.4" cy="165.7" r="3"/><circle cx="223.6" cy="165.8" r="3"/><circle cx="233.4" cy="170.8" r="3"/><circle cx="153.7" cy="209.1" r="3"/><circle cx="203.1" cy="123.4" r="3"/><circle cx="208.9" cy="167.2" r="3"/><circle cx="223.3" cy="139.7" r="3"/><circle cx="214.6" cy="159.2" r="3"/><circle cx="290.7" cy="150.4" r="3"/><circle cx="273.4" cy="164.2" r="3"/><circle cx="265.3" cy="282.2" r="3"/><circle cx="184.8" cy="175.2" r="3"/><circle cx="156.9" cy="133.4" r="3"/><circle cx="175.3" cy="172.7" r="3"/><circle cx="254.4" cy="211.9" r="3"/><circle cx="179.1" cy="175.3" r="3"/><circle cx="127.4" cy="196.6" r="3"/><circle cx="192.4" cy="115.1" r="3"/><circle cx="166.4" cy="196.1" r="3"/><circle cx="210.3" cy="199.5" r="3"/><circle cx="181.5" cy="175.6" r="3"/><circle cx="192.3" cy="93.6" r="3"/><circle cx="196.5" cy="161.4" r="3"/><circle cx="168.6" cy="206.5" r="3"/><circle cx="318.5" cy="237.6" r="3"/><circle cx="207.2" cy="111.3" r="3"/><circle cx="195.3" cy="137.1" r="3"/><circle cx="213.2" cy="226.1" r="3"/><circle cx="202.1" cy="98.8" r="3"/><circle cx="276.6" cy="170.8" r="3"/><circle cx="277.1" cy="125.1" r="3"/><circle cx="337.2" cy="108.3" r="3"/><circle cx="212.2" cy="207.7" r="3"/><circle cx="68.6" cy="129.4" r="3"/><circle cx="120.6" cy="251.7" r="3"/><circle cx="242.0" cy="121.3" r="3"/><circle cx="112.8" cy="82.8" r="3"/><circle cx="214.0" cy="128.7" r="3"/><circle cx="224.4" cy="141.9" r="3"/><circle cx="115.2" cy="256.3" r="3"/><circle cx="230.8" cy="134.0" r="3"/><circle cx="187.0" cy="232.0" r="3"/><circle cx="248.4" cy="107.1" r="3"/><circle cx="282.2" cy="137.7" r="3"/><circle cx="235.5" cy="109.0" r="3"/><circle cx="169.4" cy="206.6" r="3"/><circle cx="141.3" cy="171.7" r="3"/></g><g fill="#C89A3C" opacity=".85"><circle cx="245.2" cy="167.4" r="3"/><circle cx="351.8" cy="126.4" r="3"/><circle cx="240.2" cy="147.0" r="3"/><circle cx="326.9" cy="200.5" r="3"/><circle cx="245.6" cy="90.5" r="3"/><circle cx="337.9" cy="171.8" r="3"/><circle cx="377.6" cy="195.2" r="3"/><circle cx="299.1" cy="137.4" r="3"/><circle cx="427.4" cy="136.7" r="3"/><circle cx="266.3" cy="97.6" r="3"/><circle cx="308.6" cy="156.7" r="3"/><circle cx="287.4" cy="147.1" r="3"/><circle cx="317.1" cy="181.9" r="3"/><circle cx="356.6" cy="159.7" r="3"/><circle cx="218.1" cy="182.3" r="3"/><circle cx="235.9" cy="142.1" r="3"/><circle cx="233.3" cy="150.1" r="3"/><circle cx="266.6" cy="159.8" r="3"/><circle cx="462.4" cy="147.8" r="3"/><circle cx="344.4" cy="89.1" r="3"/><circle cx="290.2" cy="180.5" r="3"/><circle cx="299.6" cy="167.0" r="3"/><circle cx="309.0" cy="103.7" r="3"/><circle cx="331.1" cy="112.6" r="3"/><circle cx="393.8" cy="126.8" r="3"/><circle cx="336.9" cy="150.1" r="3"/><circle cx="349.7" cy="122.3" r="3"/><circle cx="351.9" cy="144.3" r="3"/><circle cx="364.6" cy="178.7" r="3"/><circle cx="310.8" cy="114.1" r="3"/><circle cx="340.9" cy="171.5" r="3"/><circle cx="382.8" cy="132.7" r="3"/><circle cx="330.6" cy="173.4" r="3"/><circle cx="317.6" cy="159.6" r="3"/><circle cx="312.7" cy="122.5" r="3"/><circle cx="255.3" cy="131.8" r="3"/><circle cx="332.4" cy="219.5" r="3"/><circle cx="350.9" cy="198.4" r="3"/><circle cx="341.3" cy="182.1" r="3"/><circle cx="312.8" cy="185.5" r="3"/><circle cx="389.1" cy="134.9" r="3"/><circle cx="270.7" cy="240.2" r="3"/><circle cx="315.7" cy="194.7" r="3"/><circle cx="345.9" cy="97.8" r="3"/><circle cx="420.8" cy="231.7" r="3"/><circle cx="312.5" cy="184.6" r="3"/><circle cx="310.1" cy="109.3" r="3"/><circle cx="298.6" cy="167.2" r="3"/><circle cx="357.6" cy="182.6" r="3"/><circle cx="306.9" cy="212.3" r="3"/><circle cx="267.5" cy="186.5" r="3"/><circle cx="357.4" cy="136.6" r="3"/><circle cx="218.1" cy="108.3" r="3"/><circle cx="315.4" cy="174.3" r="3"/><circle cx="378.3" cy="103.8" r="3"/><circle cx="304.1" cy="179.8" r="3"/><circle cx="296.4" cy="41.0" r="3"/><circle cx="342.7" cy="256.4" r="3"/><circle cx="352.2" cy="107.8" r="3"/><circle cx="284.2" cy="160.2" r="3"/><circle cx="423.5" cy="178.4" r="3"/><circle cx="309.5" cy="221.6" r="3"/><circle cx="300.1" cy="235.6" r="3"/><circle cx="271.1" cy="128.2" r="3"/><circle cx="338.6" cy="215.5" r="3"/><circle cx="335.4" cy="163.9" r="3"/><circle cx="216.6" cy="117.2" r="3"/><circle cx="274.7" cy="125.5" r="3"/><circle cx="332.1" cy="134.6" r="3"/><circle cx="341.8" cy="153.8" r="3"/><circle cx="288.0" cy="155.4" r="3"/><circle cx="324.6" cy="189.5" r="3"/><circle cx="281.1" cy="139.3" r="3"/><circle cx="238.5" cy="223.8" r="3"/><circle cx="373.7" cy="141.8" r="3"/><circle cx="281.0" cy="93.1" r="3"/><circle cx="312.2" cy="159.5" r="3"/><circle cx="408.7" cy="161.3" r="3"/><circle cx="266.7" cy="37.5" r="3"/><circle cx="371.7" cy="158.7" r="3"/><circle cx="226.8" cy="158.3" r="3"/><circle cx="226.8" cy="310.1" r="3"/><circle cx="357.7" cy="176.3" r="3"/><circle cx="295.6" cy="51.6" r="3"/><circle cx="297.9" cy="78.5" r="3"/><circle cx="332.6" cy="51.6" r="3"/><circle cx="260.4" cy="206.1" r="3"/><circle cx="382.9" cy="95.7" r="3"/><circle cx="230.4" cy="190.5" r="3"/><circle cx="344.9" cy="104.6" r="3"/><circle cx="270.7" cy="118.1" r="3"/><circle cx="246.9" cy="118.7" r="3"/><circle cx="364.0" cy="181.7" r="3"/><circle cx="402.7" cy="146.0" r="3"/><circle cx="297.5" cy="104.8" r="3"/></g></svg>